<svg version="1.1" id="Слой_1" xmlns="http://www.w3.org/2000/svg" x="0" y="0" viewBox="0 0 1920 1080" xml:space="preserve"><style>.st1{fill:#ee152f}</style><switch><g><linearGradient id="SVGID_1_" gradientUnits="userSpaceOnUse" x1="707.594" y1="535.518" x2="829.034" y2="465.404"><stop offset="0" stop-color="#fff"/><stop offset=".033" stop-color="#fef3f5"/><stop offset=".126" stop-color="#fcd6db"/><stop offset=".22" stop-color="#fac2c9"/><stop offset=".311" stop-color="#f9b5be"/><stop offset=".4" stop-color="#f9b1ba"/><stop offset=".45" stop-color="#f9abb4"/><stop offset=".519" stop-color="#f799a4"/><stop offset=".6" stop-color="#f57b8a"/><stop offset=".69" stop-color="#f25265"/><stop offset=".785" stop-color="#ef1e37"/><stop offset=".8" stop-color="#ee152f"/></linearGradient><path d="M842.6 488.9h-29.3c-1.6-1.5-3.2-2.9-4.9-4.2-9.8-7.4-21.9-11.8-35.1-11.8-32.3 0-58.5 26.2-58.5 58.4 0 16.1 6.5 30.7 17.1 41.3-12.7-12.6-20.6-30.2-20.6-49.7 0-38.7 31.4-70.1 70.1-70.1 26.3 0 49.2 14.6 61.2 36.1z" fill="url(#SVGID_1_)"/><path class="st1" d="M939.4 576.5l-14.7 52.8h-13.4l7.6-27.9-19 22.7h-6.5l-7.4-22.7-7.7 27.9H865l14.7-52.8h11.8L901 607l25.9-30.5h12.5zm9.4 50.9c-3.7-2-6.4-4.7-8.2-8.2-1.8-3.5-2.5-7.5-2.1-12.1.5-6 2.3-11.5 5.4-16.3 3.1-4.8 7.2-8.6 12.3-11.3 5.1-2.7 10.8-4.1 17-4.1 5.2 0 9.6 1 13.3 2.9 3.7 2 6.4 4.7 8.2 8.2 1.8 3.5 2.5 7.5 2.1 12.1-.5 6-2.3 11.5-5.4 16.3s-7.2 8.6-12.3 11.3c-5.1 2.7-10.8 4.1-17 4.1-5.1 0-9.6-.9-13.3-2.9zm24.4-11.9c2.6-1.7 4.7-3.9 6.2-6.7 1.6-2.8 2.5-5.9 2.8-9.2.3-3.6-.5-6.4-2.5-8.6-2-2.1-4.8-3.2-8.7-3.2-3.2 0-6.1.8-8.7 2.5-2.6 1.7-4.7 3.9-6.2 6.7-1.6 2.8-2.5 5.9-2.8 9.2-.3 3.6.5 6.4 2.5 8.6 1.9 2.1 4.8 3.2 8.7 3.2 3.2 0 6.1-.9 8.7-2.5zm97.5-39l-14.7 52.8h-13.4l7.6-27.9-19 22.7h-6.5l-7.4-22.7-7.7 27.9h-13.4l14.7-52.8h11.8l9.5 30.5 25.9-30.5h12.6zm20.2 11.5l-2.4 8.9h22.8l-3.1 11.2h-22.9l-2.6 9.7h27l-3.3 11.5h-41.2l14.7-52.8h40.2l-3.2 11.5h-26zm85.8-11.5l-14.7 52.8h-14.5l5.7-20.5h-19.8l-5.7 20.5h-14.5l14.7-52.8h14.5l-5.5 19.8h19.8l5.5-19.8h14.5zm48.5 11.8h-16l-11.2 41h-14.3l11.2-41h-15.5l3.3-11.8h45.8l-3.3 11.8z"/><path d="M796.5 524l8.7 26.8h-15.7l-6-20.2H776l-5.8 20.2h-14.8l15.1-52.7h14.8l-5.8 20.5h6.3l18.3-20.5h16.4l-24 25.9zm65.6-21.5c3.4 3 4.9 7.1 4.4 12.5-.4 4.4-1.8 8.3-4.2 11.6s-5.6 5.9-9.7 7.7c-4.1 1.8-8.7 2.7-13.9 2.7h-10.4l-3.9 13.8h-14.8l15.1-52.7h22.1c6.8 0 11.9 1.5 15.3 4.4zm-13.9 20.4c1.9-1.6 3-3.8 3.2-6.6.2-2.2-.4-3.8-1.7-4.9-1.3-1.1-3.3-1.6-5.9-1.6H836l-4.4 15.4h8.8c3.3.1 5.9-.7 7.8-2.3zm78.3-24.8l-33.3 41.2c-3.5 4.3-7.1 7.5-10.8 9.6-3.8 2.1-7.6 3.2-11.4 3.2-3.2 0-6.3-.7-9.3-2.1l5.7-10.6c1.5.5 2.9.7 4.3.7 3.3 0 6.3-1.5 9.1-4.5l.3-.3-9.3-37.2h15.3l4.9 25.2 19.8-25.2h14.7zm46.9 11.8h-16.3l-11.5 40.9H931l11.5-40.9h-15.7l3.4-11.8h46.5l-3.3 11.8zm54.7-11.7l-15.1 52.7h-14.5l3.9-13.3h-7.7l-12.4 13.3h-16.1l15.3-15.8c-2.5-1.4-4.3-3.2-5.4-5.7-1.1-2.4-1.5-5.3-1.3-8.6.4-4.5 1.9-8.5 4.5-11.9 2.6-3.4 6-6.1 10.3-8 4.3-1.9 9.1-2.8 14.5-2.8h24zm-34.6 14.2c-2 1.7-3.1 4.1-3.4 7.1-.4 4.3 1.8 6.5 6.6 6.5h8.8l4.6-16.1h-8.7c-3.2 0-5.9.9-7.9 2.5zm114.7-14.3l-15.1 52.7h-70.8l15.1-52.7h14.5l-11.6 40.9h13.6l11.5-40.9h14.5l-11.5 40.9h13.6l11.5-40.9h14.7zm-4.7 40.9l-6.4 22.5h-13.6l3-10.6h-8l3.4-11.8h21.6zm16.5-40.9h14.5l-9.1 31 30.4-31h14.1l-15.1 52.7h-14.5l9.1-30.9-30.4 30.9h-14.1l15.1-52.7zm59.2 0h14.5l-9.1 31 30.4-31h14.1l-15.1 52.7h-14.5l9.1-30.9-30.4 30.9h-14.1l15.1-52.7zm13-12.9c.1-1.1.2-1.9.4-2.5h9.2c-.1.3-.1.6-.2 1.1-.1 1.4.2 2.5 1.1 3.2.8.7 2.1 1.1 3.7 1.1 3.7 0 6-1.8 7-5.4h9.5c-1.1 4.3-3 7.4-5.9 9.4-2.9 2-6.8 3-11.8 3-9.3 0-13.6-3.3-13-9.9z"/><path d="M864.9 561.6c-7.2 15.4-18.7 29-34.1 38.7-42.9 27.2-99.8 14.5-127.1-28.4-27.2-42.9-14.5-99.8 28.4-127.1 42.9-27.2 99.8-14.5 127.1 28.4 3.2 5.1 5.9 10.4 8 15.8h-18.5c-1.1-2.3-2.4-4.5-3.8-6.7-22.2-35-68.6-45.4-103.7-23.2s-45.4 68.6-23.2 103.7c22.2 35 68.6 45.4 103.7 23.2 10.1-6.4 18.1-14.8 24-24.4h19.2z"/><linearGradient id="SVGID_2_" gradientUnits="userSpaceOnUse" x1="773.189" y1="510.835" x2="817.083" y2="512.846"><stop offset="0"/><stop offset=".036" stop-color="#280408"/><stop offset=".08" stop-color="#510710"/><stop offset=".13" stop-color="#770a17"/><stop offset=".184" stop-color="#970d1e"/><stop offset=".243" stop-color="#b31023"/><stop offset=".31" stop-color="#c91228"/><stop offset=".389" stop-color="#da132b"/><stop offset=".486" stop-color="#e5142d"/><stop offset=".622" stop-color="#ec152f"/><stop offset="1" stop-color="#ee152f"/></linearGradient><path d="M794.4 513.5l-7.5 6.3c.4 1 .6 2.1.6 3.2-.2 4.1-3.6 7.2-7.7 7-4.1-.2-7.2-3.6-7-7.7.2-4.1 3.6-7.2 7.7-7.1 1.6.1 3.1.7 4.3 1.6l8.1-5.6 25.2-17.4-23.7 19.7z" fill="url(#SVGID_2_)"/><circle class="st1" cx="780" cy="522.8" r="10.1"/></g></switch></svg>