<svg width="59" height="69" fill="none" xmlns="http://www.w3.org/2000/svg"><path d="M58.463 17.76c-.083-1.815-.083-3.547-.083-5.28 0-1.403-1.072-2.476-2.475-2.476-10.314 0-18.153-2.97-24.671-9.323a2.546 2.546 0 00-3.466 0c-6.518 6.353-14.356 9.324-24.67 9.324-1.403 0-2.476 1.072-2.476 2.475 0 1.733 0 3.465-.082 5.28-.33 17.328-.825 41.091 28.136 51.075l.825.165.825-.165c28.88-9.984 28.467-33.665 28.137-51.074zM27.52 41.772c-.495.413-1.073.66-1.733.66h-.082c-.66 0-1.32-.33-1.733-.825l-7.674-8.498 3.713-3.3 6.024 6.683 13.367-12.707 3.383 3.63L27.52 41.771z" fill="#EE152F"/></svg>