<svg width="72" height="72" fill="none" xmlns="http://www.w3.org/2000/svg"><g clip-path="url(#clip0)" fill="#EE152F"><path d="M50.16 57.214a3.856 3.856 0 01-3.103-1.517 3.71 3.71 0 01-.745.014v14.36l3.085-2.314a1.284 1.284 0 011.543 0l3.086 2.314v-14.36a3.812 3.812 0 01-.772-.014 3.857 3.857 0 01-3.094 1.517zM0 59.786a3.857 3.857 0 003.857 3.857h39.888V58.5H0v1.286zm55.684-12.832a1.285 1.285 0 01-.73-1.764 1.337 1.337 0 00-1.775-1.785 1.286 1.286 0 01-1.765-.73 1.332 1.332 0 00-2.512 0 1.287 1.287 0 01-1.765.73 1.336 1.336 0 00-1.774 1.786 1.285 1.285 0 01-.73 1.763 1.338 1.338 0 000 2.52 1.285 1.285 0 01.73 1.764 1.335 1.335 0 001.774 1.785 1.288 1.288 0 011.765.73 1.332 1.332 0 002.512 0 1.287 1.287 0 011.765-.73 1.337 1.337 0 001.775-1.785 1.284 1.284 0 01.73-1.764 1.34 1.34 0 000-2.52z"/><path d="M10.286 5.786v50.143h33.459V54.5a3.864 3.864 0 01-1.059-3.187 3.926 3.926 0 010-6.198 3.92 3.92 0 014.371-4.383 3.916 3.916 0 016.192 0 3.921 3.921 0 014.371 4.383 3.926 3.926 0 010 6.198 3.856 3.856 0 01-1.028 3.15v8.943c.405.15.833.23 1.265.237a3.857 3.857 0 003.857-3.857v-54c.003-.4.044-.8.121-1.194.023-.121.06-.237.09-.357.064-.262.144-.52.24-.771a6.42 6.42 0 01.532-1.054c.066-.109.128-.218.204-.32.036-.053.063-.111.101-.161h-48.86a3.857 3.857 0 00-3.856 3.857zm45 27H33.429v-2.572h21.857v2.572zm0-6.429H25.714v-2.571h29.572v2.571zM39.857 9.643H45v2.571h-5.143V9.643zM27 9.643h10.286v2.571H27V9.643zm-3.857 6.428h25.714v2.572H23.143V16.07zm-6.429 7.715h6.429v2.571h-6.429v-2.571zm0 6.428h14.143v2.572H16.714v-2.572zm0 6.429H42.43v2.571H16.714v-2.571zm0 6.428h21.857v2.572H16.714V43.07zM68.143 1.929a3.857 3.857 0 00-3.857 3.857V7.07H72V5.786a3.857 3.857 0 00-3.857-3.857z"/></g><defs><clipPath id="clip0"><path fill="#fff" d="M0 0h72v72H0z"/></clipPath></defs></svg>