<svg width="73" height="73" fill="none" xmlns="http://www.w3.org/2000/svg"><path d="M73 16.657v22.098s-4.73.931-5.704 1.054c-.971.122-4.023 1.108-6.235-1.018C57.65 35.52 45.53 23.468 45.53 23.468s-2.09-2.05-5.446-.278c-3.08 1.623-7.646 4.002-9.553 4.929-3.605 1.919-6.593-1.126-6.593-3.445 0-1.799 1.123-3.02 2.727-3.918 4.349-2.636 13.514-7.78 17.332-9.809 2.32-1.234 3.992-1.34 7.178 1.344 3.923 3.3 7.415 6.308 7.415 6.308s1.139.95 2.955.567c4.46-.943 11.455-2.51 11.455-2.51zM24.76 54.099c.586-1.507.39-3.194-.735-4.351-1.012-1.035-2.488-1.308-3.895-.985.393-1.397.176-2.883-.84-3.931-1.015-1.033-2.488-1.31-3.896-.985.39-1.395.174-2.88-.843-3.926-1.593-1.634-4.348-1.564-6.158.162-1.8 1.727-2.954 4.857-1.347 6.7 1.604 1.832 3.447.717 4.853.397-.391 1.394-1.563 2.69-.12 4.516 1.441 1.825 3.447.718 4.854.4-.392 1.39-1.513 2.816-.126 4.508 1.4 1.697 3.692.793 5.206.322-.584 1.503-1.835 3.122-.228 4.937 1.604 1.827 5.312.982 7.123-.746 1.806-1.728 1.98-4.466.39-6.104-1.096-1.125-2.731-1.386-4.239-.914zm33.043-11.496c-13.091-13.091-6.934-6.931-13.979-13.992 0 0-2.117-2.107-4.908-.883a287.018 287.018 0 00-6.378 2.922c-2.086 1.093-3.587 1.431-4.291 1.427-4.032-.026-7.302-3.267-7.302-7.294 0-2.613 1.387-4.887 3.455-6.178 2.91-2.014 9.605-5.575 9.605-5.575s-2.04-2.585-6.508-2.585c-4.467 0-13.8 6.115-13.8 6.115s-2.648 1.696-6.422.168L0 14.195V39.48s2.077.601 3.944 1.363a8.315 8.315 0 012.045-3.229c3.096-2.949 8.229-2.98 11.046-.079a6.97 6.97 0 011.743 3.097 7.055 7.055 0 012.99 1.822 6.955 6.955 0 011.746 3.091c1.134.35 2.16.974 2.99 1.826a7.143 7.143 0 011.846 3.386 7.156 7.156 0 013.119 1.87c1.693 1.738 2.294 4.098 1.93 6.373.003 0 .008 0 .01.006a55.48 55.48 0 001.687 1.817 3.216 3.216 0 004.538 0 3.221 3.221 0 000-4.538c-.045-.045-4.503-4.708-4.144-5.07.356-.359 6.036 5.551 6.142 5.66a3.217 3.217 0 004.535 0 3.215 3.215 0 000-4.536 23.545 23.545 0 01-.412-.4s-5.631-5.017-5.203-5.446c.434-.431 7.43 6.097 7.44 6.097 1.258 1.132 3.195 1.124 4.405-.087 1.177-1.177 1.202-3.038.158-4.293-.022-.066-5.33-5.614-4.916-6.032.42-.423 5.673 4.986 5.684 4.997a3.218 3.218 0 004.535 0 3.224 3.224 0 000-4.54c-.016-.011-.039-.022-.055-.033z" fill="#EE152F"/></svg>