<svg width="64" height="64" fill="none" xmlns="http://www.w3.org/2000/svg"><g clip-path="url(#clip0)" fill="#EE152F"><path d="M26.001 26.003h-2v4h2a2 2 0 000-4z"/><path d="M61.06 32.002l2.807-7.323a2.002 2.002 0 00-.608-2.272l-6.088-4.936-1.231-7.747a2 2 0 00-1.664-1.66l-7.748-1.232L41.596.74A2.003 2.003 0 0039.33.132L32 2.944 24.678.136a1.995 1.995 0 00-2.268.608l-4.936 6.092-7.747 1.232a2.004 2.004 0 00-1.66 1.66l-1.232 7.747-6.092 4.936a2 2 0 00-.608 2.268l2.808 7.323-2.808 7.324a1.995 1.995 0 00.608 2.267l6.092 4.932 1.232 7.748a2 2 0 001.66 1.663l7.747 1.232 4.936 6.088a1.99 1.99 0 002.272.608l7.32-2.804 7.323 2.808a1.993 1.993 0 002.272-.612l4.931-6.088 7.748-1.231a2.004 2.004 0 001.663-1.664l1.232-7.748 6.088-4.931c.676-.549.916-1.46.608-2.268l-2.808-7.324zm-47.058-2a2 2 0 010 4h-2v6a2 2 0 01-4 0v-16a2 2 0 012-2h4a2 2 0 010 4h-2v4h2zm13.775 3.7l3.824 5.1a1.999 1.999 0 11-3.196 2.4l-4.403-5.868v4.668a2 2 0 01-4 0v-16a2 2 0 012-2h4c3.307 0 6 2.693 6 6 0 2.688-1.789 4.94-4.225 5.7zM42 30.002a2 2 0 010 4h-2v4h2a2 2 0 010 4h-4a2 2 0 01-2-2v-16a2 2 0 012-2h4a2 2 0 010 4h-2v4h2zm12 0a2 2 0 010 4h-2v4h2a2 2 0 010 4h-4a2 2 0 01-2-2v-16a2 2 0 012-2h4a2 2 0 010 4h-2v4h2z"/></g><defs><clipPath id="clip0"><path fill="#fff" d="M0 0h64v64H0z"/></clipPath></defs></svg>