<svg width="30" height="30" fill="none" xmlns="http://www.w3.org/2000/svg"><g clip-path="url(#clip0)"><rect width="30" height="30" rx="15" fill="#EE152F"/><path d="M1.875 2.041C-.482 4.49 0 7.091 0 14.994c0 6.562-1.145 13.141 4.848 14.69 1.87.481 18.45.481 20.32-.003 2.495-.643 4.524-2.667 4.802-6.196.039-.492.039-16.481-.001-16.984C29.674 2.742 27.36.576 24.31.138 23.613.036 23.473.006 19.887 0 7.171.006 4.384-.56 1.875 2.041z" fill="url(#paint0_linear)"/><path d="M15 6.009c-3.686 0-7.187-.328-8.524 3.1-.552 1.417-.472 3.256-.472 5.89 0 2.31-.074 4.483.472 5.888 1.334 3.43 4.863 3.102 8.522 3.102 3.53 0 7.17.367 8.523-3.102.554-1.43.472-3.243.472-5.888 0-3.512.194-5.78-1.51-7.482-1.726-1.724-4.06-1.508-7.487-1.508H15zm-.806 1.62c7.69-.012 8.668-.867 8.128 11-.192 4.196-3.39 3.736-7.32 3.736-7.168 0-7.375-.205-7.375-7.37 0-7.249.569-7.362 6.567-7.368v.002zm5.608 1.492a1.079 1.079 0 100 2.158 1.079 1.079 0 000-2.158zM15 10.382a4.618 4.618 0 00-4.62 4.617A4.618 4.618 0 0015 19.614a4.617 4.617 0 100-9.232zm0 1.62c3.965 0 3.97 5.993 0 5.993-3.963 0-3.97-5.993 0-5.993z" fill="#fff"/></g><defs><linearGradient id="paint0_linear" x1="1.933" y1="28.084" x2="29.814" y2="3.952" gradientUnits="userSpaceOnUse"><stop stop-color="#FD5"/><stop offset=".5" stop-color="#FF543E"/><stop offset="1" stop-color="#C837AB"/></linearGradient><clipPath id="clip0"><rect width="30" height="30" rx="15" fill="#fff"/></clipPath></defs></svg>