<svg width="17" height="17" fill="none" xmlns="http://www.w3.org/2000/svg"><path d="M7.04 9.96C5.416 8.338 5.05 6.715 4.967 6.065a.583.583 0 01.167-.488l1.313-1.312a.586.586 0 00.083-.726L4.44.293a.586.586 0 00-.76-.214L.324 1.66a.583.583 0 00-.322.582c.176 1.671.904 5.778 4.94 9.814 4.036 4.037 8.143 4.765 9.814 4.94a.583.583 0 00.583-.322l1.58-3.356a.586.586 0 00-.212-.758l-3.247-2.09a.586.586 0 00-.725.082l-1.313 1.313a.583.583 0 01-.487.167c-.65-.082-2.273-.449-3.896-2.072z" fill="#fff"/><path d="M13.483 9.086a.586.586 0 01-.587-.586A4.402 4.402 0 008.5 4.104a.586.586 0 010-1.173 5.575 5.575 0 015.569 5.57.586.586 0 01-.586.585z" fill="#fff"/><path d="M16.414 9.086a.586.586 0 01-.587-.586A7.336 7.336 0 008.5 1.172.586.586 0 118.5 0 8.51 8.51 0 0117 8.5a.586.586 0 01-.586.586z" fill="#fff"/></svg>