<svg width="37" height="37" fill="none" xmlns="http://www.w3.org/2000/svg"><path d="M18.5 21.969a3.469 3.469 0 110-6.938 3.469 3.469 0 010 6.938z" fill="#EE152F"/><path d="M18.5 10.406c4.463 0 8.093 3.631 8.093 8.094 0 4.463-3.63 8.093-8.093 8.093s-8.094-3.63-8.094-8.093 3.631-8.094 8.094-8.094zm0 13.875a5.788 5.788 0 005.781-5.781 5.788 5.788 0 00-5.781-5.781 5.788 5.788 0 00-5.781 5.781 5.788 5.788 0 005.781 5.781zm-7.06-13.415L1.049 12.35A18.551 18.551 0 018.34 3.04l.216.198 7.03 5.272a10.403 10.403 0 00-4.146 2.356zM.384 14.74h.293l8.702-1.244a10.332 10.332 0 00-1.277 4.608l-6.29 8.387A18.527 18.527 0 01.384 14.739zM25.56 26.134l10.391-1.484a18.55 18.55 0 01-7.267 9.294l-7.27-5.454a10.402 10.402 0 004.147-2.356zm.93 9.054a18.522 18.522 0 01-11.688 1.44l-.063-.305-1.243-8.702a10.333 10.333 0 004.607 1.277l8.388 6.29zM8.51 21.414a10.404 10.404 0 002.356 4.146l1.484 10.391a18.55 18.55 0 01-9.306-7.286l.194-.221 5.272-7.03zm20.388-2.518l6.29-8.387a18.529 18.529 0 011.435 11.717l-.3.035-8.701 1.243a10.333 10.333 0 001.276-4.608zm-.409-3.309a10.404 10.404 0 00-2.355-4.15L24.65 1.05a18.551 18.551 0 019.283 7.247l-.171.26-5.273 7.03zM10.51 1.812A18.53 18.53 0 0122.226.377l.034.3 1.243 8.702a10.333 10.333 0 00-4.608-1.277l-8.387-6.29z" fill="#EE152F"/></svg>