<svg width="37" height="37" fill="none" xmlns="http://www.w3.org/2000/svg"><path d="M18.536 28.654a3.613 3.613 0 100-7.226 3.613 3.613 0 000 7.226z" fill="#EE152F"/><path d="M35.916 0H1.084C.485 0 0 .485 0 1.084v26.014c0 .599.485 1.084 1.084 1.084h12.602c-2.484-3.823.272-8.922 4.85-8.922 4.578 0 7.335 5.1 4.85 8.922h12.53c.599 0 1.084-.485 1.084-1.084V1.084C37 .485 36.515 0 35.916 0zM14.164 4.408h8.672a1.084 1.084 0 110 2.168h-8.672a1.084 1.084 0 110-2.168zM29.34 17.415H7.66a1.084 1.084 0 110-2.168h21.68a1.084 1.084 0 110 2.168zm0-4.336H7.66a1.084 1.084 0 110-2.167h21.68a1.084 1.084 0 110 2.167zM14.218 28.88v7.034c0 .86.96 1.383 1.683.904l2.671-1.771 2.671 1.77c.713.473 1.683-.033 1.683-.903v-7.118a5.77 5.77 0 01-8.708.084z" fill="#EE152F"/></svg>