<svg width="36" height="36" fill="none" xmlns="http://www.w3.org/2000/svg"><path d="M31.729 24.93c5.695-5.696 5.695-14.963 0-20.659-5.695-5.695-14.963-5.695-20.658 0-4.832 4.832-5.564 12.018-2.197 17.63 0 0 .241.406-.085.732l-7.453 7.453C-.147 31.569-.5 33.643.816 34.959l.226.226c1.315 1.316 3.39.963 4.873-.52l7.437-7.438c.342-.342.747-.1.747-.1 5.612 3.366 12.798 2.635 17.63-2.197zm-17.961-2.697c-4.209-4.209-4.209-11.056 0-15.264 4.208-4.209 11.056-4.209 15.264 0 4.208 4.208 4.208 11.055 0 15.264-4.208 4.208-11.056 4.208-15.264 0z" fill="#EE152F"/><path d="M14.7 13.734a1.508 1.508 0 01-1.388-2.096c2.04-4.82 7.62-7.081 12.439-5.042a1.508 1.508 0 11-1.175 2.777 6.483 6.483 0 00-8.487 3.44c-.244.575-.802.92-1.39.92z" fill="#EE152F"/></svg>