<svg width="37" height="37" fill="none" xmlns="http://www.w3.org/2000/svg"><path d="M11.996 0H5.492a1.083 1.083 0 100 2.168h6.504a1.083 1.083 0 100-2.168zM0 5.42c0 .6.485 1.084 1.084 1.084H7.66a1.083 1.083 0 100-2.168H1.084C.484 4.336 0 4.82 0 5.42zm35.916-3.252h-1.084V1.084a1.083 1.083 0 10-2.168 0v1.084H31.58a1.083 1.083 0 100 2.168h1.084V5.42a1.083 1.083 0 102.168 0V4.336h1.084a1.083 1.083 0 100-2.168zm-7.66 32.664h1.084a1.083 1.083 0 100-2.168h-1.084V31.58a1.083 1.083 0 10-2.168 0v1.084h-1.084a1.083 1.083 0 100 2.168h1.084v1.084a1.083 1.083 0 102.168 0v-1.084zm1.299-12.122c.634-.706.634-1.736 0-2.37a1.626 1.626 0 00-2.3 0l-4.216 4.215a1.084 1.084 0 01-1.533-1.533l5.749-5.749a1.626 1.626 0 00-2.3-2.3l-5.748 5.75a1.084 1.084 0 01-1.533-1.534l7.282-7.281a1.626 1.626 0 00-2.3-2.3l-7.282 7.282a1.084 1.084 0 11-1.533-1.533l5.75-5.749a1.626 1.626 0 00-2.3-2.3L6.364 18.227l-.394-6.751a2.168 2.168 0 00-4.332.06c-.976 12.32-3.783 17.098 1.4 22.28 4.233 4.234 11.097 4.234 15.33.073l11.187-11.177z" fill="#EE152F"/><path d="M34.746 23.716c2.966-2.965 2.967-7.766 0-10.803l-9.198-9.198c-2.864-2.794-7.865-2.794-10.73.073L11.68 6.926c-1.215 1.214-1.707 2.866-1.525 4.453l5.602-5.603a3.77 3.77 0 012.683-1.112 3.77 3.77 0 012.683 1.112 3.77 3.77 0 01.956 1.602 3.785 3.785 0 011.727-.413c1.013 0 1.964.394 2.681 1.11a3.77 3.77 0 011.113 2.683c0 .61-.143 1.2-.414 1.727a3.799 3.799 0 012.298 5.365 3.798 3.798 0 011.604 6.322l-4.184 4.184c1.662.269 3.425-.222 4.704-1.502l3.138-3.137z" fill="#EE152F"/></svg>