<svg width="18" height="36" fill="none" xmlns="http://www.w3.org/2000/svg"><path d="M13.444 24.778c0 .28-.111.548-.31.746l-.383.384.384.384c.198.198.309.466.309.746v4.518c0 .28-.111.548-.31.746l-3.388 3.39a1.055 1.055 0 01-1.492 0l-3.389-3.39a1.055 1.055 0 01-.309-.746v-4.518c0-.28.111-.549.31-.746l.383-.384-.384-.384a1.055 1.055 0 01-.309-.746v-4.743h8.888v4.743zm.075-6.853H4.48a4.445 4.445 0 01-4.444-4.444V4.444A4.445 4.445 0 014.481 0h9.038a4.445 4.445 0 014.443 4.444v9.037a4.445 4.445 0 01-4.443 4.444zm-1.13-13.406H5.611a1.055 1.055 0 000 2.11h6.778a1.055 1.055 0 000-2.11z" fill="#EE152F"/></svg>