<svg width="37" height="37" fill="none" xmlns="http://www.w3.org/2000/svg"><path d="M27.895 16.621a1.445 1.445 0 100-2.89 1.445 1.445 0 000 2.89z" fill="#EE152F"/><path d="M31.219 2.89h-1.88V1.446a1.445 1.445 0 10-2.89 0v1.446h-6.576V1.445a1.445 1.445 0 10-2.89 0v1.446h-6.505V1.445a1.445 1.445 0 10-2.89 0v1.446H5.78A5.788 5.788 0 000 8.67v22.55A5.788 5.788 0 005.781 37h11.057a1.445 1.445 0 000-2.89H5.78a2.894 2.894 0 01-2.89-2.891V8.672a2.894 2.894 0 012.89-2.89h1.807v1.445a1.445 1.445 0 102.89 0V5.78h6.504v1.446a1.445 1.445 0 102.891 0V5.78h6.576v1.446a1.445 1.445 0 102.89 0V5.78h1.88a2.894 2.894 0 012.89 2.89v8.24a1.445 1.445 0 102.891 0V8.67a5.788 5.788 0 00-5.781-5.78z" fill="#EE152F"/><path d="M28.256 19.512c-4.822 0-8.744 3.922-8.744 8.744 0 4.821 3.922 8.744 8.744 8.744C33.077 37 37 33.077 37 28.256c0-4.822-3.923-8.744-8.744-8.744zm0 14.597a5.86 5.86 0 01-5.854-5.853 5.86 5.86 0 015.854-5.854 5.86 5.86 0 015.853 5.854 5.86 5.86 0 01-5.853 5.853z" fill="#EE152F"/><path d="M30.352 26.81h-.65v-1.517a1.445 1.445 0 10-2.892 0v2.963c0 .798.648 1.445 1.446 1.445h2.096a1.445 1.445 0 000-2.89zm-8.745-10.189a1.445 1.445 0 100-2.89 1.445 1.445 0 000 2.89zm-6.287 6.287a1.445 1.445 0 100-2.89 1.445 1.445 0 000 2.89zm-6.287-6.287a1.445 1.445 0 100-2.89 1.445 1.445 0 000 2.89zm0 6.287a1.445 1.445 0 100-2.89 1.445 1.445 0 000 2.89zm0 6.287a1.445 1.445 0 100-2.89 1.445 1.445 0 000 2.89zm6.287 0a1.445 1.445 0 100-2.89 1.445 1.445 0 000 2.89zm0-12.574a1.445 1.445 0 100-2.89 1.445 1.445 0 000 2.89z" fill="#EE152F"/></svg>