<svg width="21" height="21" fill="none" xmlns="http://www.w3.org/2000/svg"><circle cx="10.5" cy="10.5" r="10.5" fill="#fff"/><path d="M10.496 8.862c-.58 0-.992.471-.992 1.051v3.576c0 .58.411 1.051.992 1.051.58 0 .992-.47.992-1.051V9.913c0-.58-.412-1.051-.992-1.051zm.004-2.734a1.087 1.087 0 100 2.174 1.087 1.087 0 000-2.174z" fill="#000"/><path d="M10.5 4A6.507 6.507 0 004 10.5c0 3.584 2.916 6.5 6.5 6.5s6.5-2.916 6.5-6.5S14.084 4 10.5 4zm0 11.583A5.089 5.089 0 015.417 10.5 5.089 5.089 0 0110.5 5.417a5.088 5.088 0 015.082 5.083 5.088 5.088 0 01-5.082 5.083z" fill="#000"/></svg>