<svg width="45" height="45" fill="none" xmlns="http://www.w3.org/2000/svg"><g clip-path="url(#clip0)" fill="#EE152F"><path d="M45 22.5C45 10.093 34.907 0 22.5 0S0 10.093 0 22.5 10.095 45 22.5 45C34.906 45 45 34.907 45 22.5zm-41.514 0c0-10.483 8.53-19.014 19.014-19.014 10.485 0 19.014 8.53 19.014 19.014 0 10.485-8.53 19.014-19.014 19.014-10.485 0-19.014-8.53-19.014-19.014z"/><path d="M20.095 32.452l8.714-8.715a1.742 1.742 0 000-2.457l-8.714-8.714a1.742 1.742 0 00-2.457 2.457l7.476 7.477-7.477 7.494a1.742 1.742 0 000 2.458c.68.676 1.778.676 2.458 0z"/></g><defs><clipPath id="clip0"><path fill="transparent" transform="rotate(90 22.5 22.5)" d="M0 0h45v45H0z"/></clipPath></defs></svg>