<svg width="45" height="45" fill="none" xmlns="http://www.w3.org/2000/svg"><g clip-path="url(#clip0)"><path d="M0 22.5C0 34.907 10.093 45 22.5 45S45 34.907 45 22.5 34.906 0 22.5 0C10.095 0 0 10.093 0 22.5zm41.514 0c0 10.483-8.53 19.014-19.014 19.014-10.485 0-19.014-8.53-19.014-19.014 0-10.485 8.53-19.014 19.014-19.014 10.485 0 19.014 8.53 19.014 19.014z" fill="#252525"/><path d="M24.905 12.548l-8.714 8.715a1.742 1.742 0 000 2.457l8.714 8.714a1.742 1.742 0 002.457-2.457L19.887 22.5l7.477-7.494a1.742 1.742 0 000-2.458 1.742 1.742 0 00-2.458 0z" fill="#EE152F"/></g><defs><clipPath id="clip0"><path fill="transparent" transform="rotate(-90 22.5 22.5)" d="M0 0h45v45H0z"/></clipPath></defs></svg>