<svg width="68" height="68" fill="none" xmlns="http://www.w3.org/2000/svg"><g clip-path="url(#clip0)"><path d="M34 68c-9.082 0-17.62-3.537-24.042-9.958C3.537 51.62 0 43.082 0 34S3.537 16.38 9.958 9.958C16.38 3.537 24.918 0 34 0s17.62 3.537 24.042 9.958C64.463 16.38 68 24.918 68 34s-3.537 17.62-9.958 24.042C51.62 64.463 43.082 68 34 68zm0-62.688C18.182 5.313 5.312 18.182 5.312 34S18.182 62.688 34 62.688 62.688 49.818 62.688 34 49.818 5.312 34 5.312zM46.45 39.87a2.656 2.656 0 00-3.668.815c-.032.051-3.338 5.144-8.915 5.144-5.577 0-8.882-5.093-8.915-5.144a2.656 2.656 0 10-4.482 2.852c.198.31 4.937 7.605 13.397 7.605s13.2-7.295 13.397-7.605a2.656 2.656 0 00-.815-3.667zM22.311 21.914a3.32 3.32 0 110 6.64 3.32 3.32 0 010-6.64zm19.922 3.32a3.32 3.32 0 106.641 0 3.32 3.32 0 00-6.64 0z" fill="#fff"/></g><defs><clipPath id="clip0"><path fill="#fff" d="M0 0h68v68H0z"/></clipPath></defs></svg>