<svg width="28" height="28" fill="none" xmlns="http://www.w3.org/2000/svg"><path d="M13.004 15.499L15.606 14l-2.602-1.499V15.5z" fill="#fff"/><path d="M14 6a8 8 0 10.002 16.002A8 8 0 0014 6zm4.999 8.008s0 1.623-.206 2.405a1.253 1.253 0 01-.881.881C17.129 17.5 14 17.5 14 17.5s-3.121 0-3.912-.214a1.253 1.253 0 01-.881-.881C9.001 15.63 9.001 14 9.001 14s0-1.622.206-2.405a1.28 1.28 0 01.881-.89C10.871 10.5 14 10.5 14 10.5s3.13 0 3.912.214c.428.115.766.453.881.881.214.783.206 2.413.206 2.413z" fill="#fff"/><circle cx="14" cy="14" r="13.5" stroke="#EE152F"/></svg>