<svg width="28" height="28" fill="none" xmlns="http://www.w3.org/2000/svg"><circle cx="14" cy="14" r="14" fill="#EE152F"/><path d="M12.219 15.782c-1.434-1.433-1.757-2.866-1.83-3.44a.515.515 0 01.148-.431l1.16-1.16c.17-.17.2-.435.073-.64L9.923 7.244a.518.518 0 00-.671-.19L6.287 8.452a.515.515 0 00-.284.514c.155 1.476.798 5.104 4.363 8.669 3.565 3.565 7.192 4.208 8.669 4.363a.515.515 0 00.514-.285l1.396-2.964a.518.518 0 00-.187-.67l-2.868-1.846a.518.518 0 00-.64.073l-1.16 1.16a.515.515 0 01-.43.147c-.575-.073-2.008-.396-3.441-1.83z" fill="#fff"/><path d="M17.524 15a.476.476 0 01-.476-.476 3.575 3.575 0 00-3.572-3.572.476.476 0 110-.952A4.529 4.529 0 0118 14.524a.476.476 0 01-.476.476z" fill="#fff"/><path d="M20.484 13.928c-.285 0-.516-.2-.516-.447-.004-3.084-2.89-5.584-6.452-5.587-.285 0-.516-.2-.516-.447S13.231 7 13.516 7c4.132.004 7.48 2.903 7.484 6.48a.419.419 0 01-.151.317.56.56 0 01-.365.13z" fill="#fff"/></svg>