<svg width="28" height="28" fill="none" xmlns="http://www.w3.org/2000/svg"><path d="M17.669 22H10.33A4.336 4.336 0 016 17.669v-7.338A4.336 4.336 0 0110.331 6h7.338A4.336 4.336 0 0122 10.331v7.338A4.336 4.336 0 0117.669 22zM14 9.625A4.38 4.38 0 009.625 14 4.38 4.38 0 0014 18.375 4.38 4.38 0 0018.375 14 4.38 4.38 0 0014 9.625zm4.48 7.718c-.713 0-1.293.58-1.293 1.293s.58 1.293 1.293 1.293a1.294 1.294 0 000-2.586z" fill="#fff"/><path d="M14 17.437A3.44 3.44 0 0110.563 14 3.44 3.44 0 0114 10.563 3.44 3.44 0 0117.437 14 3.44 3.44 0 0114 17.437zm4.48 1.553a.355.355 0 110-.71.355.355 0 010 .71z" fill="#fff"/><circle cx="14" cy="14" r="13.5" stroke="#EE152F"/></svg>