<svg width="57" height="55" viewBox="0 0 57 55" fill="none" xmlns="http://www.w3.org/2000/svg">
<path d="M13.3203 10.5575L36.0434 4.35501L34.8401 1.92267C34.0528 0.341649 32.1325 -0.311242 30.5515 0.476068L10.2094 10.5575H13.3203Z" fill="#EE152F"/>
<path d="M43.0972 4.53418C42.8157 4.53418 42.534 4.57259 42.2523 4.6494L36.914 6.1088L20.6109 10.5574H39.1159H47.181L46.1825 6.89611C45.7984 5.46871 44.5054 4.53418 43.0972 4.53418Z" fill="#EE152F"/>
<path d="M50.5159 12.7979H49.7862H48.7941H47.8019H40.2296H12.4049H8.75643H5.684H5.11432H3.20685C2.19551 12.7979 1.29298 13.2651 0.704099 14.0012C0.435261 14.3405 0.230432 14.7309 0.115216 15.1598C0.0448063 15.4286 0 15.7103 0 15.9983V16.3824V20.0309V51.6577C0 53.4244 1.4338 54.8581 3.20045 54.8581H50.5095C52.2762 54.8581 53.7099 53.4244 53.7099 51.6577V42.7284H34.7185C31.7165 42.7284 29.2777 40.2897 29.2777 37.2877V34.3561V33.3639V32.3718V30.1699C29.2777 28.6977 29.8665 27.36 30.8203 26.3806C31.6652 25.51 32.7982 24.9212 34.0656 24.7739C34.2768 24.7484 34.4944 24.7355 34.7121 24.7355H51.0472H52.0393H53.0314H53.7099V15.9983C53.7163 14.2317 52.2825 12.7979 50.5159 12.7979Z" fill="#EE152F"/>
<path d="M55.9567 27.7951C55.6366 27.5007 55.259 27.2766 54.8365 27.1294C54.51 27.0207 54.1644 26.9567 53.7996 26.9567H53.7163H53.6523H52.6602H49.0821H34.7185C32.9518 26.9567 31.518 28.3904 31.518 30.1571V31.7509V32.743V33.7352V37.2813C31.518 39.0479 32.9518 40.4817 34.7185 40.4817H53.7163H53.7996C54.1644 40.4817 54.5101 40.4177 54.8365 40.3089C55.259 40.1681 55.6366 39.9376 55.9567 39.6432C56.5968 39.0607 57 38.2158 57 37.2813V30.1571C57 29.2225 56.5968 28.3775 55.9567 27.7951ZM41.401 34.356C41.401 35.2394 40.6841 35.9563 39.8008 35.9563H38.7382C37.8549 35.9563 37.138 35.2394 37.138 34.356V33.2935C37.138 32.7814 37.3748 32.3269 37.7525 32.0389C38.0277 31.8276 38.367 31.6933 38.7382 31.6933H39.0071H39.8008C40.6841 31.6933 41.401 32.4101 41.401 33.2935V34.356Z" fill="#EE152F"/>
</svg>
