<svg width="64" height="64" viewBox="0 0 64 64" fill="none" xmlns="http://www.w3.org/2000/svg">
<g clip-path="url(#clip0)">
<path d="M26.001 26.0026H24.0011V30.0023H26.001C27.1049 30.0023 28.0009 29.1064 28.0009 28.0024C28.0009 26.8985 27.1049 26.0026 26.001 26.0026Z" fill="#EE152F"/>
<path d="M61.0591 32.0021L63.8669 24.6786C64.1749 23.8707 63.9349 22.9547 63.259 22.4068L57.1714 17.4711L55.9395 9.72364C55.8035 8.8677 55.1315 8.19975 54.2756 8.06376L46.5281 6.83184L41.5964 0.740259C41.0525 0.064305 40.1165 -0.175679 39.3286 0.1323L32.0011 2.94411L24.6776 0.1363C23.8657 -0.175679 22.9577 0.0723044 22.4098 0.744259L17.4741 6.83584L9.72662 8.06776C8.87468 8.20375 8.20273 8.8757 8.06674 9.72764L6.83482 17.4751L0.743237 22.4108C0.0712826 22.9547 -0.172701 23.8707 0.135278 24.6786L2.94309 32.0021L0.135278 39.3256C-0.1767 40.1336 0.0712826 41.0495 0.743237 41.5935L6.83482 46.5251L8.06674 54.2726C8.20273 55.1285 8.87068 55.8005 9.72662 55.9365L17.4741 57.1684L22.4098 63.256C22.9577 63.9359 23.8737 64.1759 24.6816 63.8639L32.0011 61.0601L39.3246 63.8679C39.5566 63.9559 39.7966 63.9999 40.0406 63.9999C40.6285 63.9999 41.2085 63.74 41.5964 63.256L46.5281 57.1684L54.2756 55.9365C55.1315 55.8005 55.8035 55.1285 55.9395 54.2726L57.1714 46.5251L63.259 41.5935C63.9349 41.0455 64.1749 40.1336 63.8669 39.3256L61.0591 32.0021ZM14.0023 30.0023C15.1063 30.0023 16.0022 30.8982 16.0022 32.0021C16.0022 33.106 15.1063 34.002 14.0023 34.002H12.0025V40.0016C12.0025 41.1055 11.1065 42.0014 10.0026 42.0014C8.89868 42.0014 8.00274 41.1055 8.00274 40.0016V24.0027C8.00274 22.8987 8.89868 22.0028 10.0026 22.0028H14.0023C15.1063 22.0028 16.0022 22.8987 16.0022 24.0027C16.0022 25.1066 15.1063 26.0025 14.0023 26.0025H12.0025V30.0023H14.0023ZM27.7774 33.702L31.6011 38.8017C32.2651 39.6856 32.0851 40.9375 31.2012 41.6015C30.8412 41.8694 30.4212 42.0014 30.0052 42.0014C29.3973 42.0014 28.7973 41.7255 28.4053 41.2015L24.0016 35.3339V40.0016C24.0016 41.1055 23.1057 42.0014 22.0018 42.0014C20.8979 42.0014 20.0019 41.1055 20.0019 40.0016V24.0027C20.0019 22.8987 20.8979 22.0028 22.0018 22.0028H26.0015C29.3093 22.0028 32.0011 24.6946 32.0011 28.0024C32.0011 30.6902 30.2132 32.9421 27.7774 33.702ZM42.0004 30.0023C43.1043 30.0023 44.0003 30.8982 44.0003 32.0021C44.0003 33.106 43.1043 34.002 42.0004 34.002H40.0006V38.0017H42.0004C43.1043 38.0017 44.0003 38.8977 44.0003 40.0016C44.0003 41.1055 43.1043 42.0014 42.0004 42.0014H38.0007C36.8968 42.0014 36.0008 41.1055 36.0008 40.0016V24.0027C36.0008 22.8987 36.8968 22.0028 38.0007 22.0028H42.0004C43.1043 22.0028 44.0003 22.8987 44.0003 24.0027C44.0003 25.1066 43.1043 26.0025 42.0004 26.0025H40.0006V30.0023H42.0004ZM53.9996 30.0023C55.1035 30.0023 55.9995 30.8982 55.9995 32.0021C55.9995 33.106 55.1035 34.002 53.9996 34.002H51.9997V38.0017H53.9996C55.1035 38.0017 55.9995 38.8977 55.9995 40.0016C55.9995 41.1055 55.1035 42.0014 53.9996 42.0014H49.9999C48.8959 42.0014 48 41.1055 48 40.0016V24.0027C48 22.8987 48.8959 22.0028 49.9999 22.0028H53.9996C55.1035 22.0028 55.9995 22.8987 55.9995 24.0027C55.9995 25.1066 55.1035 26.0025 53.9996 26.0025H51.9997V30.0023H53.9996Z" fill="#EE152F"/>
</g>
<defs>
<clipPath id="clip0">
<rect width="64" height="64" fill="white"/>
</clipPath>
</defs>
</svg>
