<svg width="72" height="72" viewBox="0 0 72 72" fill="none" xmlns="http://www.w3.org/2000/svg">
<g clip-path="url(#clip0)">
<path d="M50.1598 57.2143C48.9444 57.2256 47.7943 56.6637 47.0573 55.6969C46.8099 55.7264 46.5601 55.7308 46.3115 55.7113V70.0714L49.3971 67.7574C49.8541 67.414 50.4831 67.414 50.9402 67.7574L54.0257 70.0714V55.7113C53.769 55.7327 53.5103 55.7277 53.2542 55.6969C52.5184 56.6612 51.3721 57.2231 50.1598 57.2143Z" fill="#EE152F"/>
<path d="M0 59.7857C0 61.9158 1.72705 63.6429 3.85714 63.6429H43.745V58.5H0L0 59.7857Z" fill="#EE152F"/>
<path d="M55.6843 46.9543C55.3416 46.8326 55.066 46.5708 54.9272 46.2349C54.7879 45.8984 54.7973 45.5192 54.9542 45.1903C55.1972 44.6805 55.0942 44.0728 54.6962 43.6723C54.2976 43.2717 53.6905 43.165 53.1795 43.4054C52.8511 43.5624 52.4713 43.5724 52.1348 43.4337C51.7977 43.2943 51.5365 43.0187 51.4141 42.6753C51.2264 42.143 50.7229 41.7864 50.1585 41.7864C49.5935 41.7864 49.09 42.143 48.9023 42.6753C48.7805 43.0187 48.5187 43.2943 48.1823 43.4337C47.8451 43.5724 47.4653 43.5624 47.137 43.4054C46.6253 43.1644 46.0176 43.2717 45.6196 43.6723C45.221 44.0734 45.118 44.6817 45.3628 45.1915C45.5185 45.5198 45.5286 45.899 45.3892 46.2349C45.2505 46.5708 44.9761 46.8319 44.6334 46.9543C44.1004 47.1439 43.7438 47.6487 43.7438 48.2143C43.7438 48.78 44.1004 49.2847 44.6334 49.4743C44.9761 49.5967 45.2511 49.8579 45.3898 50.1944C45.5292 50.5302 45.5192 50.9101 45.3628 51.2384C45.1193 51.7481 45.2222 52.3559 45.6209 52.7564C46.0189 53.1569 46.626 53.2636 47.137 53.0232C47.4653 52.8662 47.8451 52.8562 48.1823 52.9949C48.5187 53.1343 48.7805 53.4099 48.9023 53.7533C49.09 54.2857 49.5935 54.6423 50.1585 54.6423C50.7229 54.6423 51.2264 54.2857 51.4141 53.7533C51.5365 53.4099 51.7977 53.1343 52.1348 52.9949C52.4713 52.8562 52.8511 52.8662 53.1795 53.0232C53.6905 53.2636 54.2976 53.1569 54.6962 52.7564C55.0942 52.3559 55.1972 51.7481 54.9542 51.2384C54.7973 50.9094 54.7879 50.5302 54.9272 50.1937C55.066 49.8579 55.3416 49.5961 55.6843 49.4743C56.2161 49.2834 56.5714 48.7793 56.5714 48.2143C56.5714 47.6493 56.2161 47.1452 55.6843 46.9543Z" fill="#EE152F"/>
<path d="M10.2857 5.78573V55.9286H43.745V54.5004C42.9245 53.6547 42.5347 52.4814 42.686 51.3131C41.7298 50.5691 41.1711 49.4253 41.1711 48.2143C41.1711 47.0033 41.7298 45.8595 42.686 45.1155C42.534 43.9152 42.9452 42.7117 43.7997 41.8548C44.6541 40.9979 45.8563 40.5835 47.0573 40.7317C47.7993 39.7743 48.9419 39.2143 50.1529 39.2143C51.3639 39.2143 52.5071 39.7743 53.2491 40.7317C54.4501 40.5829 55.6523 40.9972 56.5074 41.8542C57.3618 42.7117 57.7724 43.9152 57.6205 45.1155C58.5766 45.8595 59.1353 47.0033 59.1353 48.2143C59.1353 49.4253 58.5766 50.5691 57.6205 51.3131C57.7692 52.4644 57.3913 53.6215 56.5921 54.4627V63.4062C56.9971 63.5562 57.4252 63.636 57.8571 63.6429C59.9872 63.6429 61.7143 61.9158 61.7143 59.7857V5.78573C61.7174 5.3852 61.7576 4.98593 61.8354 4.5923C61.858 4.47051 61.8957 4.355 61.9252 4.23509C61.9886 3.9733 62.069 3.71591 62.1644 3.46354C62.2146 3.33547 62.2686 3.2143 62.3264 3.09063C62.4362 2.85646 62.5593 2.6292 62.6968 2.40948C62.7633 2.3015 62.8248 2.19226 62.9008 2.0893C62.9372 2.03657 62.9642 1.97881 63.0025 1.92859H14.1428C12.0128 1.92859 10.2857 3.65564 10.2857 5.78573ZM55.2857 32.7857H33.4286V30.2143H55.2857V32.7857ZM55.2857 26.3572H25.7143V23.7857H55.2857V26.3572ZM39.8571 9.64288H45V12.2143H39.8571V9.64288ZM27 9.64288H37.2857V12.2143H27V9.64288ZM23.1428 16.0714H48.8571V18.6429H23.1428V16.0714ZM16.7143 23.7857H23.1428V26.3572H16.7143V23.7857ZM16.7143 30.2143H30.8571V32.7857H16.7143V30.2143ZM16.7143 36.6429H42.4286V39.2143H16.7143V36.6429ZM16.7143 43.0714H38.5714V45.6429H16.7143V43.0714Z" fill="#EE152F"/>
<path d="M68.1429 1.92859C66.0128 1.92859 64.2857 3.65564 64.2857 5.78573V7.07145H72V5.78573C72 3.65564 70.2729 1.92859 68.1429 1.92859Z" fill="#EE152F"/>
</g>
<defs>
<clipPath id="clip0">
<rect width="72" height="72" fill="white"/>
</clipPath>
</defs>
</svg>
