<svg width="66" height="66" viewBox="0 0 66 66" fill="none" xmlns="http://www.w3.org/2000/svg">
<g clip-path="url(#clip0)">
<path d="M43.9077 32.0463V33.7145C43.9077 37.6582 40.6991 40.8673 36.7549 40.8673H29.2446C25.3009 40.8673 22.0918 37.6587 22.0918 33.7145V32.0463H0V53.6693C0 57.2968 2.95125 60.248 6.57875 60.248H59.4212C63.0488 60.248 66 57.2968 66 53.6693V32.0463H43.9077Z" fill="#EE152F"/>
<path d="M26.0104 33.7145C26.0104 35.498 27.4611 36.9487 29.2446 36.9487H36.7549C38.5384 36.9487 39.9896 35.498 39.9896 33.7145V32.0463H26.0104V33.7145Z" fill="#EE152F"/>
<path d="M66 28.1283V22.3098C66 18.6823 63.0488 15.7311 59.4212 15.7311H45.0331V10.8447C45.0331 8.06319 42.7707 5.80078 39.9891 5.80078H26.0109C23.2293 5.80078 20.9669 8.06319 20.9669 10.8447V15.7311H6.57875C2.95125 15.7311 0 18.6823 0 22.3098V28.1277H66V28.1283ZM24.8849 10.8447C24.8849 10.2239 25.39 9.71883 26.0109 9.71883H39.9891C40.61 9.71883 41.1151 10.2239 41.1151 10.8447V15.7311H24.8849V10.8447Z" fill="#EE152F"/>
</g>
<defs>
<clipPath id="clip0">
<rect width="66" height="66" fill="white"/>
</clipPath>
</defs>
</svg>
