<svg width="73" height="73" viewBox="0 0 73 73" fill="none" xmlns="http://www.w3.org/2000/svg">
<path d="M73 16.6568V38.7547C73 38.7547 68.2705 39.6864 67.2962 39.809C66.325 39.9312 63.2728 40.9167 61.0608 38.7906C57.6496 35.5212 45.5296 23.468 45.5296 23.468C45.5296 23.468 43.4398 21.4175 40.0844 23.1897C37.0043 24.8131 32.4385 27.1923 30.5314 28.1187C26.9262 30.0376 23.9381 26.9931 23.9381 24.6741C23.9381 22.8752 25.0606 21.6543 26.6652 20.7564C31.0138 18.1203 40.1793 12.9756 43.9967 10.9472C46.3172 9.71311 47.989 9.60736 51.1748 12.2911C55.0983 15.5909 58.5899 18.5987 58.5899 18.5987C58.5899 18.5987 59.7288 19.5491 61.545 19.1663C66.0049 18.2234 73 16.6568 73 16.6568ZM24.7591 54.0994C25.346 52.5915 25.1499 50.9049 24.0246 49.7478C23.0134 48.7128 21.5371 48.44 20.1295 48.7625C20.5232 47.3664 20.3058 45.8804 19.2892 44.8317C18.275 43.7993 16.8015 43.5211 15.394 43.8466C15.7847 42.4525 15.5679 40.9666 14.5507 39.921C12.958 38.2873 10.2029 38.3574 8.39301 40.0826C6.59269 41.8102 5.43941 44.9401 7.04619 46.7824C8.65032 48.6154 10.4935 47.5001 11.8986 47.1799C11.5077 48.574 10.3365 49.8708 11.7789 51.6955C13.22 53.5212 15.2261 52.4136 16.6327 52.0963C16.2405 53.4851 15.1203 54.912 16.5073 56.6039C17.9069 58.301 20.1992 57.3968 21.7131 56.9265C21.1288 58.4287 19.8782 60.048 21.485 61.8626C23.0893 63.6903 26.7967 62.8448 28.6076 61.1169C30.4137 59.3893 30.5871 56.6514 28.9985 55.0125C27.9018 53.8881 26.2669 53.6265 24.7591 54.0994ZM57.8026 42.6029C44.7115 29.5116 50.869 35.6717 43.824 28.6115C43.824 28.6115 41.7067 26.5037 38.9161 27.7281C36.9572 28.5865 34.4351 29.7564 32.5375 30.6496C30.4521 31.7431 28.9514 32.0815 28.2468 32.0768C24.2155 32.0505 20.9447 28.8102 20.9447 24.7829C20.9447 22.1703 22.3318 19.8957 24.4004 18.6045C27.3094 16.5915 34.0052 13.0301 34.0052 13.0301C34.0052 13.0301 31.9654 10.4453 27.4969 10.4453C23.0298 10.4453 13.6966 16.5596 13.6966 16.5596C13.6966 16.5596 11.0489 18.2555 7.27464 16.7279L0 14.1947V39.4809C0 39.4809 2.07723 40.0822 3.94368 40.8445C4.36522 39.6424 5.04541 38.5322 5.98895 37.6154C9.08542 34.666 14.2179 34.6354 17.0351 37.5363C17.8838 38.4181 18.476 39.47 18.7783 40.6329C19.9134 40.9833 20.9416 41.604 21.7679 42.4553C22.6191 43.3312 23.2092 44.3891 23.5139 45.546C24.6477 45.8967 25.6745 46.5198 26.5036 47.3717C27.4373 48.3345 28.0593 49.4975 28.3497 50.7576C29.535 51.1028 30.6061 51.7452 31.4687 52.6271C33.1618 54.3662 33.7628 56.7256 33.3987 59.0015C33.4016 59.0015 33.4072 59.0015 33.4099 59.0067C33.4375 59.0429 34.4589 60.1815 35.0957 60.8237C36.3439 62.073 38.3819 62.073 39.6339 60.8237C40.8776 59.5748 40.883 57.5407 39.6339 56.2855C39.5891 56.2409 35.1309 51.5777 35.4897 51.2161C35.8459 50.857 41.5258 56.7671 41.6316 56.8753C42.8781 58.1221 44.9148 58.1221 46.1669 56.8753C47.4161 55.6264 47.4134 53.5923 46.1669 52.3401C46.1056 52.2817 45.8499 52.0368 45.7551 51.9393C45.7551 51.9393 40.1236 46.9226 40.5522 46.494C40.9861 46.0627 47.9812 52.5906 47.9926 52.5906C49.25 53.723 51.1868 53.7146 52.3965 52.5043C53.5735 51.3274 53.5987 49.4659 52.5553 48.2114C52.5332 48.1447 47.2243 42.5966 47.6386 42.1791C48.059 41.7563 53.3121 47.1653 53.3231 47.1765C54.5668 48.423 56.6064 48.423 57.8585 47.1765C59.105 45.9299 59.105 43.8933 57.8585 42.6356C57.8415 42.625 57.8193 42.6138 57.8026 42.6029Z" fill="#EE152F"/>
</svg>
