<svg width="59" height="69" viewBox="0 0 59 69" fill="none" xmlns="http://www.w3.org/2000/svg">
<path d="M58.4627 17.7605C58.3802 15.9453 58.3802 14.2126 58.3802 12.4798C58.3802 11.0771 57.3076 10.0045 55.9049 10.0045C45.591 10.0045 37.7524 7.03408 31.234 0.680717C30.2439 -0.226906 28.7587 -0.226906 27.7685 0.680717C21.2502 7.03408 13.4116 10.0045 3.0977 10.0045C1.69501 10.0045 0.622361 11.0771 0.622361 12.4798C0.622361 14.2126 0.622361 15.9453 0.53985 17.7605C0.209805 35.0879 -0.285264 58.8511 28.6762 68.835L29.5013 69L30.3264 68.835C59.2053 58.8511 58.7928 35.1704 58.4627 17.7605ZM27.521 41.7713C27.0259 42.1839 26.4484 42.4314 25.7883 42.4314H25.7058C25.0457 42.4314 24.3856 42.1013 23.973 41.6063L16.2995 33.1076L20.0125 29.8072L26.0358 36.4906L39.4026 23.7839L42.7856 27.4143L27.521 41.7713Z" fill="#EE152F"/>
</svg>
