<svg width="36" height="36" viewBox="0 0 36 36" fill="none" xmlns="http://www.w3.org/2000/svg">
<path d="M12.06 18.0011L0.922966 6.86405C-0.307564 5.63352 -0.307564 3.63852 0.922966 2.40992L2.40768 0.925205C3.63859 -0.30571 5.63359 -0.30571 6.8622 0.925205L17.9989 12.0619L29.1359 0.922898C30.3665 -0.307633 32.3615 -0.307633 33.5901 0.922898L35.0771 2.40761C36.3076 3.63852 36.3076 5.63352 35.0771 6.86213L23.9381 18.0011L35.0748 29.1378C36.3057 30.3687 36.3057 32.3637 35.0748 33.5923L33.5901 35.077C32.3596 36.3076 30.3646 36.3076 29.1359 35.077L17.9989 23.94L6.8622 35.077C5.63128 36.3076 3.63628 36.3076 2.40768 35.077L0.922966 33.5923C-0.307564 32.3614 -0.307564 30.3664 0.922966 29.1378L12.06 18.0011Z" fill="white"/>
</svg>
