<svg width="17" height="17" viewBox="0 0 17 17" fill="none" xmlns="http://www.w3.org/2000/svg">
<path d="M7.03936 9.96046C5.41674 8.33784 5.05036 6.71522 4.96771 6.06511C4.94461 5.88536 5.00647 5.70509 5.13507 5.57739L6.44817 4.26487C6.64133 4.07183 6.67561 3.77098 6.53083 3.53944L4.44012 0.293026C4.27994 0.0366338 3.95106 -0.0559009 3.68069 0.079354L0.324362 1.66006C0.105724 1.76772 -0.0228757 2.00002 0.00194818 2.24246C0.17781 3.91315 0.906172 8.02011 4.94221 12.0564C8.97824 16.0928 13.0846 16.8208 14.7562 16.9967C14.9986 17.0215 15.2309 16.8929 15.3386 16.6743L16.9193 13.318C17.054 13.0482 16.9621 12.7202 16.7068 12.5597L13.4604 10.4696C13.229 10.3246 12.9281 10.3587 12.7349 10.5516L11.4224 11.8647C11.2947 11.9933 11.1145 12.0552 10.9347 12.0321C10.2846 11.9495 8.66198 11.5831 7.03936 9.96046Z" fill="white"/>
<path d="M13.4827 9.08633C13.1589 9.08633 12.8965 8.82388 12.8965 8.50012C12.8937 6.07311 10.9269 4.10631 8.4999 4.10357C8.17615 4.10357 7.9137 3.84111 7.9137 3.51736C7.9137 3.19361 8.17615 2.93115 8.4999 2.93115C11.5742 2.93454 14.0655 5.42587 14.0689 8.50012C14.0689 8.82388 13.8064 9.08633 13.4827 9.08633Z" fill="white"/>
<path d="M16.4137 9.08621C16.09 9.08621 15.8275 8.82375 15.8275 8.5C15.823 4.45496 12.5449 1.17694 8.4999 1.17241C8.17615 1.17241 7.9137 0.90996 7.9137 0.586207C7.9137 0.262454 8.17615 0 8.4999 0C13.1922 0.00516913 16.9947 3.80772 16.9999 8.5C16.9999 8.65547 16.9382 8.80458 16.8282 8.91451C16.7183 9.02445 16.5692 9.08621 16.4137 9.08621Z" fill="white"/>
</svg>
