<svg width="36" height="36" viewBox="0 0 36 36" fill="none" xmlns="http://www.w3.org/2000/svg">
<path d="M31.729 24.9297C37.4244 19.2342 37.4243 9.96687 31.729 4.27138C26.0335 -1.42412 16.7663 -1.42412 11.0709 4.27138C6.23907 9.10323 5.50729 16.2894 8.8736 21.9011C8.8736 21.9011 9.1154 22.3067 8.78883 22.6331C6.92574 24.4961 1.33612 30.0858 1.33612 30.0858C-0.147272 31.5691 -0.500407 33.6432 0.815063 34.9589L1.04156 35.1852C2.35703 36.5009 4.4313 36.1479 5.91458 34.6645C5.91458 34.6645 11.4924 29.0866 13.3516 27.2274C13.6939 26.8852 14.0994 27.127 14.0994 27.127C19.7109 30.4932 26.8971 29.7615 31.729 24.9297ZM13.7677 22.2328C9.55934 18.0244 9.55946 11.1769 13.7678 6.96854C17.9762 2.76026 24.8237 2.76015 29.032 6.96854C33.2403 11.1768 33.2403 18.0244 29.032 22.2328C24.8236 26.4409 17.9762 26.4409 13.7677 22.2328Z" fill="#EE152F"/>
<path d="M14.6995 13.7338C14.5036 13.7338 14.3045 13.6953 14.1125 13.6142C13.3458 13.2897 12.9871 12.4051 13.3116 11.6383C15.3511 6.81863 20.9313 4.55683 25.7509 6.59631C26.5176 6.9208 26.8763 7.80543 26.5518 8.57224C26.2272 9.33905 25.3428 9.69751 24.5757 9.37314C21.2875 7.98171 17.4799 9.52495 16.0886 12.8132C15.8451 13.3883 15.2868 13.7338 14.6995 13.7338Z" fill="#EE152F"/>
</svg>
