<svg width="37" height="37" viewBox="0 0 37 37" fill="none" xmlns="http://www.w3.org/2000/svg">
<path d="M18.5 21.9688C16.5843 21.9688 15.0313 20.4158 15.0313 18.5001C15.0313 16.5845 16.5843 15.0315 18.5 15.0315C20.4156 15.0315 21.9686 16.5845 21.9686 18.5001C21.9686 20.4158 20.4156 21.9688 18.5 21.9688Z" fill="#EE152F"/>
<path d="M18.5 10.4065C22.9627 10.4065 26.5935 14.0373 26.5935 18.5C26.5935 22.9628 22.9627 26.5935 18.5 26.5935C14.0372 26.5935 10.4065 22.9628 10.4065 18.5C10.4065 14.0372 14.0371 10.4065 18.5 10.4065ZM18.5 24.2811C21.6877 24.2811 24.281 21.6877 24.281 18.5C24.281 15.3123 21.6877 12.7189 18.5 12.7189C15.3123 12.7189 12.7189 15.3123 12.7189 18.5C12.7189 21.6877 15.3122 24.2811 18.5 24.2811Z" fill="#EE152F"/>
<path d="M11.4398 10.8658L1.04867 12.3502C2.40352 8.50585 4.99282 5.2444 8.34044 3.04004L8.5565 3.23798L15.5863 8.51032C14.0201 8.96787 12.6069 9.78562 11.4398 10.8658Z" fill="#EE152F"/>
<path d="M0.384237 14.7393H0.676914L9.37927 13.4961C8.62064 14.8729 8.16494 16.4388 8.1022 18.1037L1.81208 26.4906C0.00646305 22.7275 -0.408848 18.5747 0.384237 14.7393Z" fill="#EE152F"/>
<path d="M25.5606 26.1342L35.9511 24.6499C34.5995 28.4851 32.0195 31.7402 28.6836 33.9443C20.4157 27.741 21.5146 28.5656 21.4135 28.4896C22.9798 28.0322 24.3933 27.2145 25.5606 26.1342Z" fill="#EE152F"/>
<path d="M26.4906 35.188C22.7122 37.0009 18.5811 37.3967 14.8015 36.6285L14.7392 36.3231L13.496 27.6208C14.8728 28.3795 16.4387 28.835 18.1035 28.8979L26.4906 35.188Z" fill="#EE152F"/>
<path d="M8.51025 21.4138C8.9678 22.9799 9.78563 24.393 10.8658 25.5602L12.3502 35.9513C8.50801 34.5973 5.2481 32.0102 3.04382 28.6654L3.23799 28.4436L8.51025 21.4138Z" fill="#EE152F"/>
<path d="M28.8976 18.8965L35.1878 10.5095C36.9564 14.1954 37.421 18.328 36.6229 22.2257L36.3229 22.2608L27.6216 23.5038C28.3799 22.1271 28.835 20.5611 28.8976 18.8965Z" fill="#EE152F"/>
<path d="M28.4888 15.5874C28.0311 14.0204 27.2149 12.6049 26.1337 11.4372L24.6498 1.0498C28.4778 2.39888 31.7287 4.97068 33.9326 8.29742L33.7619 8.55656L28.4888 15.5874Z" fill="#EE152F"/>
<path d="M10.5093 1.81217C14.1964 0.0431591 18.3289 -0.421022 22.2266 0.377228L22.2607 0.677073L23.5039 9.37935C22.1268 8.62072 20.5608 8.16456 18.8957 8.10197L10.5093 1.81217Z" fill="#EE152F"/>
</svg>
