<svg width="21" height="21" viewBox="0 0 21 21" fill="none" xmlns="http://www.w3.org/2000/svg">
<circle cx="10.5" cy="10.5" r="10.5" fill="white"/>
<path d="M10.4958 8.86182C9.91506 8.86182 9.50354 9.33319 9.50354 9.91339V13.4888C9.50354 14.0695 9.91506 14.5401 10.4958 14.5401C11.0763 14.5401 11.4875 14.0695 11.4875 13.4888V9.91339C11.4875 9.33262 11.0763 8.86182 10.4958 8.86182Z" fill="black"/>
<path d="M10.5001 6.12842C9.90018 6.12842 9.41335 6.61497 9.41335 7.21521C9.41335 7.81517 9.90018 8.30143 10.5001 8.30143C11.0995 8.30143 11.5864 7.81517 11.5864 7.21521C11.5864 6.61497 11.0995 6.12842 10.5001 6.12842Z" fill="black"/>
<path d="M10.5001 4C6.91559 4 4 6.91616 4 10.4999C4 14.0841 6.91587 16.9997 10.5001 16.9997C14.0844 16.9997 16.9997 14.0836 16.9997 10.4999C16.9997 6.91616 14.0844 4 10.5001 4ZM10.5001 15.583C7.69739 15.583 5.41727 13.3026 5.41727 10.4999C5.41727 7.6971 7.69739 5.41698 10.5001 5.41698C13.3026 5.41698 15.5824 7.6971 15.5824 10.4999C15.5824 13.3026 13.3026 15.583 10.5001 15.583Z" fill="black"/>
</svg>
