<svg width="18" height="36" viewBox="0 0 18 36" fill="none" xmlns="http://www.w3.org/2000/svg">
<path d="M13.4437 24.7783C13.4437 25.0581 13.3326 25.3263 13.1348 25.524L12.7509 25.9079L13.1348 26.2918C13.3326 26.4896 13.4437 26.7579 13.4437 27.0376V31.5563C13.4437 31.8361 13.3326 32.1044 13.1348 32.3021L9.74572 35.6911C9.3339 36.103 8.66607 36.103 8.25418 35.6911L4.86512 32.3021C4.66733 32.1043 4.55616 31.836 4.55616 31.5563V27.0376C4.55616 26.7578 4.66726 26.4895 4.86512 26.2918L5.24902 25.9079L4.86512 25.524C4.66733 25.3262 4.55616 25.058 4.55616 24.7783V20.0345H13.4437V24.7783H13.4437Z" fill="#EE152F"/>
<path d="M13.5187 17.925H4.48121C2.05923 17.925 0.0374603 15.9659 0.0374603 13.4813V4.44382C0.0374603 1.95806 2.06042 7.24792e-05 4.48121 7.24792e-05H13.5187C15.9407 7.24792e-05 17.9624 1.95919 17.9624 4.44382V13.4813C17.9625 15.9671 15.9396 17.925 13.5187 17.925ZM12.3891 4.51877H5.61092C5.02845 4.51877 4.55624 4.99099 4.55624 5.57346C4.55624 6.15593 5.02845 6.62815 5.61092 6.62815H12.3891C12.9715 6.62815 13.4437 6.15593 13.4437 5.57346C13.4437 4.99099 12.9715 4.51877 12.3891 4.51877Z" fill="#EE152F"/>
</svg>
