<svg width="37" height="37" viewBox="0 0 37 37" fill="none" xmlns="http://www.w3.org/2000/svg">
<path d="M18.5361 28.6543C20.5317 28.6543 22.1494 27.0366 22.1494 25.0411C22.1494 23.0456 20.5317 21.428 18.5361 21.428C16.5406 21.428 14.9229 23.0456 14.9229 25.0411C14.9229 27.0366 16.5406 28.6543 18.5361 28.6543Z" fill="#EE152F"/>
<path d="M35.916 0H1.08398C0.485336 0 0 0.485264 0 1.08391V27.0982C0 27.6969 0.485336 28.1821 1.08398 28.1821H13.6865C11.2016 24.3592 13.9581 19.2601 18.5361 19.2601C23.1142 19.2601 25.8707 24.3592 23.3857 28.1821H35.916C36.5147 28.1821 37 27.6969 37 27.0982V1.08391C37 0.485264 36.5147 0 35.916 0V0ZM14.1641 4.40799H22.8359C23.4346 4.40799 23.9199 4.89325 23.9199 5.4919C23.9199 6.09055 23.4346 6.57581 22.8359 6.57581H14.1641C13.5654 6.57581 13.0801 6.09055 13.0801 5.4919C13.0801 4.89325 13.5654 4.40799 14.1641 4.40799ZM29.3398 17.4151H7.66016C7.06151 17.4151 6.57617 16.9299 6.57617 16.3312C6.57617 15.7326 7.06151 15.2473 7.66016 15.2473H29.3398C29.9385 15.2473 30.4238 15.7326 30.4238 16.3312C30.4238 16.9299 29.9385 17.4151 29.3398 17.4151ZM29.3398 13.0794H7.66016C7.06151 13.0794 6.57617 12.5942 6.57617 11.9955C6.57617 11.3969 7.06151 10.9116 7.66016 10.9116H29.3398C29.9385 10.9116 30.4238 11.3969 30.4238 11.9955C30.4238 12.5942 29.9385 13.0794 29.3398 13.0794Z" fill="#EE152F"/>
<path d="M14.2182 28.8795V35.9142C14.2182 36.7737 15.1779 37.2971 15.9011 36.8176L18.5723 35.0468L21.2434 36.8176C21.9556 37.2898 22.9263 36.7838 22.9263 35.9142V28.7961C20.6427 31.462 16.5542 31.5043 14.2182 28.8795Z" fill="#EE152F"/>
</svg>
