<svg width="37" height="37" viewBox="0 0 37 37" fill="none" xmlns="http://www.w3.org/2000/svg">
<path d="M11.9961 0H5.49219C4.89303 0 4.4082 0.48483 4.4082 1.08398C4.4082 1.68314 4.89303 2.16797 5.49219 2.16797H11.9961C12.5952 2.16797 13.0801 1.68314 13.0801 1.08398C13.0801 0.48483 12.5952 0 11.9961 0Z" fill="#EE152F"/>
<path d="M0 5.41992C0 6.01908 0.48483 6.50391 1.08398 6.50391H7.66016C8.25931 6.50391 8.74414 6.01908 8.74414 5.41992C8.74414 4.82077 8.25931 4.33594 7.66016 4.33594H1.08398C0.48483 4.33594 0 4.82077 0 5.41992Z" fill="#EE152F"/>
<path d="M35.916 2.16797H34.832V1.08398C34.832 0.48483 34.3472 0 33.748 0C33.1489 0 32.6641 0.48483 32.6641 1.08398V2.16797H31.5801C30.9809 2.16797 30.4961 2.6528 30.4961 3.25195C30.4961 3.85111 30.9809 4.33594 31.5801 4.33594H32.6641V5.41992C32.6641 6.01908 33.1489 6.50391 33.748 6.50391C34.3472 6.50391 34.832 6.01908 34.832 5.41992V4.33594H35.916C36.5152 4.33594 37 3.85111 37 3.25195C37 2.6528 36.5152 2.16797 35.916 2.16797Z" fill="#EE152F"/>
<path d="M28.2559 34.832H29.3398C29.939 34.832 30.4238 34.3472 30.4238 33.748C30.4238 33.1489 29.939 32.6641 29.3398 32.6641H28.2559V31.5801C28.2559 30.9809 27.771 30.4961 27.1719 30.4961C26.5727 30.4961 26.0879 30.9809 26.0879 31.5801V32.6641H25.0039C24.4048 32.6641 23.9199 33.1489 23.9199 33.748C23.9199 34.3472 24.4048 34.832 25.0039 34.832H26.0879V35.916C26.0879 36.5152 26.5727 37 27.1719 37C27.771 37 28.2559 36.5152 28.2559 35.916V34.832Z" fill="#EE152F"/>
<path d="M29.5545 22.7108C30.1894 22.0037 30.1894 20.9741 29.5545 20.3391C28.9195 19.7042 27.8899 19.7042 27.255 20.3391L23.0393 24.5548C22.6159 24.9781 21.9296 24.9781 21.5063 24.5548C21.083 24.1315 21.083 23.445 21.5063 23.0217L27.255 17.2731C27.8899 16.6381 27.8899 15.6085 27.255 14.9736C26.62 14.3386 25.5904 14.3386 24.9555 14.9736L19.2068 20.7224C18.7835 21.1455 18.0972 21.1455 17.6738 20.7224C17.2505 20.299 17.2505 19.6126 17.6738 19.1892L24.9555 11.9076C25.5904 11.2728 25.5904 10.2431 24.9555 9.60826C24.3205 8.97326 23.2909 8.97326 22.656 9.60826L15.3743 16.8898C14.951 17.3131 14.2647 17.3131 13.8414 16.8898C13.418 16.4665 13.418 15.7802 13.8414 15.3568L19.5901 9.60826C20.2249 8.97326 20.2249 7.94362 19.5901 7.30877C18.9551 6.67377 17.9255 6.67377 17.2906 7.30877L6.36382 18.2263L5.97019 11.4745C5.94171 10.9386 5.71719 10.434 5.33772 10.0546C4.49272 9.20943 3.11685 9.20943 2.27178 10.0546C1.86752 10.4588 1.65261 10.9849 1.63772 11.5344C0.662278 23.8549 -2.14481 28.6329 3.03815 33.8159C7.2714 38.0491 14.1348 38.0491 18.3681 33.8881L29.5545 22.7108Z" fill="#EE152F"/>
<path d="M34.7463 23.7165C37.7122 20.7507 37.713 15.9503 34.7463 12.9135L25.5483 3.71549C22.6838 0.921124 17.6831 0.921124 14.8186 3.78776L11.6796 6.9256C10.4653 8.14032 9.973 9.79159 10.155 11.379L15.7572 5.776C16.4739 5.05934 17.4266 4.66448 18.4396 4.66448C19.4537 4.66448 20.4065 5.05934 21.1232 5.776C21.5773 6.23012 21.9023 6.77847 22.0791 7.37762C22.6073 7.10771 23.1959 6.96477 23.8057 6.96477C24.8187 6.96477 25.7704 7.35855 26.487 8.07419C27.2047 8.79193 27.5996 9.74461 27.5996 10.7577C27.5996 11.3685 27.4567 11.9571 27.1857 12.4853C27.7859 12.662 28.3343 12.987 28.7884 13.4422C29.9792 14.6321 30.2111 16.4243 29.4839 17.8501C30.083 18.0269 30.6324 18.3509 31.0866 18.805C32.5675 20.2849 32.5675 22.6932 31.0876 24.172L26.904 28.3556C28.5662 28.625 30.3291 28.1338 31.6085 26.8544L34.7463 23.7165Z" fill="#EE152F"/>
</svg>
