<svg width="17" height="17" viewBox="0 0 17 17" fill="none" xmlns="http://www.w3.org/2000/svg">
<path d="M16.4038 15.4843L12.4012 11.2762C13.4303 10.0396 13.9942 8.48359 13.9942 6.86374C13.9942 3.07913 10.9481 0 7.20403 0C3.45998 0 0.413849 3.07913 0.413849 6.86374C0.413849 10.6484 3.45998 13.7275 7.20403 13.7275C8.6096 13.7275 9.94904 13.299 11.0942 12.4854L15.1273 16.7255C15.2959 16.9024 15.5226 17 15.7656 17C15.9955 17 16.2137 16.9114 16.3793 16.7502C16.7312 16.4079 16.7425 15.8403 16.4038 15.4843ZM7.20403 1.79054C9.97147 1.79054 12.2229 4.06632 12.2229 6.86374C12.2229 9.66117 9.97147 11.9369 7.20403 11.9369C4.43659 11.9369 2.1852 9.66117 2.1852 6.86374C2.1852 4.06632 4.43659 1.79054 7.20403 1.79054Z" fill="white"/>
</svg>
