<svg width="45" height="45" viewBox="0 0 45 45" fill="none" xmlns="http://www.w3.org/2000/svg">
<g clip-path="url(#clip0)">
<path d="M2.83119e-06 22.5C3.37353e-06 34.9073 10.0927 45 22.5 45C34.9073 45 45 34.9073 45 22.5C45 10.0927 34.9055 -5.34046e-06 22.5 -4.7982e-06C10.0945 -4.25594e-06 2.28885e-06 10.0927 2.83119e-06 22.5ZM41.5143 22.5C41.5143 32.9832 32.9849 41.5143 22.5 41.5143C12.0151 41.5143 3.48566 32.9832 3.48566 22.5C3.48566 12.0151 12.0151 3.48565 22.5 3.48565C32.9849 3.48565 41.5143 12.0168 41.5143 22.5Z" fill="#252525"/>
<path d="M24.9051 12.5484L16.1909 21.2626C15.5147 21.9423 15.5147 23.0403 16.1909 23.72L24.9051 32.4342C25.5569 32.9936 26.5207 32.9936 27.1725 32.4342C27.9028 31.8085 27.9882 30.7071 27.3625 29.9768L19.8858 22.5L27.3625 15.0058C28.0388 14.3261 28.0388 13.2282 27.3625 12.5484C26.6828 11.8722 25.5848 11.8722 24.9051 12.5484Z" fill="#EE152F"/>
</g>
<defs>
<clipPath id="clip0">
<rect width="45" height="45" fill="transparent" transform="translate(3.8147e-06 45) rotate(-90)"/>
</clipPath>
</defs>
</svg>
