
<svg width="45" height="45" viewBox="0 0 45 45" fill="none" xmlns="http://www.w3.org/2000/svg"><g clip-path="url(#clip0)"><path d="M45 22.5C45 10.0927 34.9073 -4.41168e-07 22.5 -9.83506e-07C10.0927 -1.52584e-06 3.37353e-06 10.0927 2.83119e-06 22.5C2.28885e-06 34.9073 10.0945 45 22.5 45C34.9055 45 45 34.9073 45 22.5ZM3.48566 22.5C3.48566 12.0168 12.0151 3.48565 22.5 3.48565C32.9849 3.48565 41.5143 12.0168 41.5143 22.5C41.5143 32.9849 32.9849 41.5144 22.5 41.5143C12.0151 41.5143 3.48566 32.9832 3.48566 22.5Z" fill="#EE152F"/><path d="M20.0949 32.4516L28.809 23.7374C29.4853 23.0577 29.4853 21.9597 28.809 21.28L20.0949 12.5658C19.4431 12.0064 18.4793 12.0064 17.8275 12.5658C17.0972 13.1915 17.0118 14.2929 17.6375 15.0232L25.1142 22.5L17.6374 29.9942C16.9612 30.6739 16.9612 31.7718 17.6374 32.4516C18.3172 33.1278 19.4152 33.1278 20.0949 32.4516Z" fill="#EE152F"/></g><defs><clipPath id="clip0"><rect width="45" height="45" fill="transparent" transform="translate(45) rotate(90)"/></clipPath></defs></svg>