<svg width="68" height="68" viewBox="0 0 68 68" fill="none" xmlns="http://www.w3.org/2000/svg">
<g clip-path="url(#clip0)">
<path d="M34 68C24.9183 68 16.3802 64.4633 9.95828 58.0417C3.53666 51.6198 0 43.0817 0 34C0 24.9183 3.53666 16.3802 9.95828 9.95828C16.3802 3.53666 24.9183 0 34 0C43.0817 0 51.6198 3.53666 58.0417 9.95828C64.4633 16.3802 68 24.9183 68 34C68 43.0817 64.4633 51.6198 58.0417 58.0417C51.6198 64.4633 43.0817 68 34 68ZM34 5.3125C18.1816 5.3125 5.3125 18.1816 5.3125 34C5.3125 49.8184 18.1816 62.6875 34 62.6875C49.8184 62.6875 62.6875 49.8184 62.6875 34C62.6875 18.1816 49.8184 5.3125 34 5.3125ZM46.4494 39.8687C45.2118 39.081 43.5699 39.4458 42.7825 40.6837C42.7497 40.7351 39.444 45.8284 33.8672 45.8284C28.2904 45.8284 24.9847 40.7351 24.9519 40.6837C24.1643 39.446 22.5226 39.0811 21.2849 39.8687C20.0473 40.6563 19.6824 42.2981 20.47 43.5357C20.6676 43.8462 25.4069 51.1409 33.8672 51.1409C42.3275 51.1409 47.0668 43.8463 47.2644 43.5357C48.052 42.298 47.6871 40.6563 46.4494 39.8687ZM22.3125 21.9141C24.1462 21.9141 25.6328 23.4006 25.6328 25.2344C25.6328 27.0681 24.1462 28.5547 22.3125 28.5547C20.4788 28.5547 18.9922 27.0681 18.9922 25.2344C18.9922 23.4006 20.4788 21.9141 22.3125 21.9141ZM42.2344 25.2344C42.2344 27.0681 43.7209 28.5547 45.5547 28.5547C47.3884 28.5547 48.875 27.0681 48.875 25.2344C48.875 23.4006 47.3884 21.9141 45.5547 21.9141C43.7209 21.9141 42.2344 23.4006 42.2344 25.2344Z" fill="#fff"/>
</g>
<defs>
<clipPath id="clip0">
<rect width="68" height="68" fill="white"/>
</clipPath>
</defs>
</svg>
