<svg width="28" height="28" viewBox="0 0 28 28" fill="none" xmlns="http://www.w3.org/2000/svg">
<circle cx="14" cy="14" r="14" fill="#EE152F"/>
<path d="M12.2187 15.7824C10.7854 14.3492 10.4618 12.916 10.3888 12.3418C10.3684 12.183 10.4231 12.0238 10.5367 11.911L11.6965 10.7517C11.8671 10.5812 11.8974 10.3155 11.7695 10.111L9.92282 7.24351C9.78134 7.01705 9.49084 6.93531 9.25203 7.05478L6.28747 8.45097C6.09435 8.54606 5.98076 8.75124 6.00269 8.96538C6.15803 10.441 6.80137 14.0686 10.3663 17.6337C13.9312 21.1989 17.5583 21.842 19.0348 21.9973C19.2489 22.0192 19.4541 21.9056 19.5492 21.7125L20.9454 18.748C21.0644 18.5097 20.9832 18.22 20.7577 18.0783L17.8902 16.2321C17.6858 16.1041 17.4201 16.1342 17.2494 16.3046L16.0901 17.4644C15.9773 17.578 15.8181 17.6327 15.6593 17.6123C15.0851 17.5392 13.6519 17.2156 12.2187 15.7824Z" fill="white"/>
<path d="M17.5238 15C17.2608 15 17.0476 14.7868 17.0476 14.5238C17.0454 12.5523 15.4477 10.9546 13.4762 10.9524C13.2132 10.9524 13 10.7392 13 10.4762C13 10.2132 13.2132 10 13.4762 10C15.9735 10.0028 17.9972 12.0265 18 14.5238C18 14.7868 17.7868 15 17.5238 15Z" fill="white"/>
<path d="M20.4839 13.9277C20.1988 13.9277 19.9677 13.7276 19.9677 13.4808C19.9638 10.3967 17.0776 7.89735 13.5161 7.8939C13.2311 7.8939 13 7.69379 13 7.44695C13 7.20011 13.2311 7 13.5161 7C17.6475 7.00394 20.9954 9.90318 21 13.4808C21 13.5993 20.9456 13.713 20.8488 13.7968C20.752 13.8806 20.6208 13.9277 20.4839 13.9277Z" fill="white"/>
</svg>
