<svg width="28" height="28" viewBox="0 0 28 28" fill="none" xmlns="http://www.w3.org/2000/svg">
<circle cx="14" cy="14" r="14" fill="#EE152F"/>
<path d="M14 22C9.58862 22 6 18.4114 6 14C6 9.58862 9.58862 6 14 6C18.4114 6 22 9.58862 22 14C22 18.4114 18.4114 22 14 22ZM17.8047 9.86206C17.6747 9.73206 17.504 9.66663 17.3334 9.66663C17.1627 9.66663 16.9919 9.73206 16.8621 9.86206L13.5287 13.1953C13.4033 13.3199 13.3334 13.4894 13.3334 13.6666V18C13.3334 18.3687 13.632 18.6666 14 18.6666C14.368 18.6666 14.6666 18.3687 14.6666 18V13.9426L17.8047 10.8047C18.0653 10.5439 18.0653 10.1227 17.8047 9.86206Z" fill="white"/>
</svg>
