<svg width="28" height="28" viewBox="0 0 28 28" fill="none" xmlns="http://www.w3.org/2000/svg">
<path d="M13.0035 15.4988L15.6058 14L13.0035 12.5012V15.4988Z" fill="white"/>
<path d="M14 6C9.5824 6 6 9.5824 6 14C6 18.4176 9.5824 22 14 22C18.4176 22 22 18.4176 22 14C22 9.5824 18.4176 6 14 6ZM18.9988 14.0082C18.9988 14.0082 18.9988 15.6306 18.793 16.413C18.6776 16.8412 18.34 17.1788 17.9117 17.2941C17.1294 17.5 14 17.5 14 17.5C14 17.5 10.8788 17.5 10.0883 17.2859C9.66003 17.1707 9.32239 16.8329 9.20703 16.4047C9.0011 15.6306 9.0011 14 9.0011 14C9.0011 14 9.0011 12.3777 9.20703 11.5953C9.32227 11.1671 9.66821 10.8212 10.0883 10.7059C10.8706 10.5 14 10.5 14 10.5C14 10.5 17.1294 10.5 17.9117 10.7141C18.34 10.8293 18.6776 11.1671 18.793 11.5953C19.0071 12.3777 18.9988 14.0082 18.9988 14.0082Z" fill="white"/>
<circle cx="14" cy="14" r="13.5" stroke="#EE152F"/>
</svg>
