<svg width="28" height="28" viewBox="0 0 28 28" fill="none" xmlns="http://www.w3.org/2000/svg">
<path d="M17.6689 22H10.331C7.94287 22 6 20.0571 6 17.669V10.331C6 7.9429 7.94287 6.00003 10.331 6.00003H17.669C20.0571 6.00003 22 7.9429 22 10.331V17.669C22 20.0571 20.0571 22 17.6689 22V22ZM14 9.62515C11.5876 9.62515 9.62512 11.5877 9.62512 14C9.62512 16.4124 11.5876 18.3749 14 18.3749C16.4123 18.3749 18.3749 16.4124 18.3749 14C18.3749 11.5877 16.4123 9.62515 14 9.62515ZM18.4795 17.3431C17.7666 17.3431 17.1867 17.923 17.1867 18.6359C17.1867 19.3488 17.7666 19.9287 18.4795 19.9287C19.1924 19.9287 19.7723 19.3488 19.7723 18.6359C19.7723 17.923 19.1924 17.3431 18.4795 17.3431Z" fill="white"/>
<path d="M14 17.437C12.105 17.437 10.5631 15.8953 10.5631 14.0001C10.5631 12.1051 12.105 10.5632 14 10.5632C15.8951 10.5632 17.4369 12.1051 17.4369 14.0001C17.4369 15.8953 15.8951 17.437 14 17.437Z" fill="white"/>
<path d="M18.4795 18.9907C18.2839 18.9907 18.1248 18.8315 18.1248 18.636C18.1248 18.4404 18.2839 18.2813 18.4795 18.2813C18.6752 18.2813 18.8343 18.4403 18.8343 18.636C18.8343 18.8317 18.6752 18.9907 18.4795 18.9907Z" fill="white"/>
<circle cx="14" cy="14" r="13.5" stroke="#EE152F"/>
</svg>
