<svg width="28" height="28" viewBox="0 0 28 28" fill="none" xmlns="http://www.w3.org/2000/svg">
<circle cx="14" cy="14" r="14" fill="#EE152F"/>
<path d="M14 6C9.58159 6 6 9.58172 6 14C6 18.4193 9.58663 22 14 22H16.6667C16.9496 22 17.2208 21.8876 17.4208 21.6876C17.621 21.4875 17.7333 21.2162 17.7333 20.9333C17.7333 20.3442 17.2557 19.8667 16.6667 19.8667H14C10.7597 19.8667 8.13334 17.2373 8.13334 14C8.13334 10.7599 10.76 8.13334 14 8.13334C17.24 8.13334 19.8667 10.7599 19.8667 14V14.5333C19.8667 15.1235 19.3874 15.6 18.8 15.6C18.2121 15.6 17.7333 15.123 17.7333 14.5333V14C17.7333 11.9395 16.0605 10.2667 14 10.2667C11.9395 10.2667 10.2667 11.9395 10.2667 14C10.2667 16.0605 11.9395 17.7333 14 17.7333C15.0301 17.7333 15.9635 17.3151 16.6395 16.6394C16.9747 16.9747 17.5949 17.7333 18.8 17.7333C20.5672 17.7333 22 16.3007 22 14.5333V14C22 9.58172 18.4184 6 14 6ZM14 15.6C13.1171 15.6 12.4 14.8831 12.4 14C12.4 13.1169 13.1171 12.4 14 12.4C14.8829 12.4 15.6 13.1169 15.6 14C15.6 14.8831 14.8829 15.6 14 15.6Z" fill="white"/>
</svg>
