<svg width="28" height="28" viewBox="0 0 28 28" fill="none" xmlns="http://www.w3.org/2000/svg">
<circle cx="14" cy="14" r="14" fill="#EE152F"/>
<path d="M14 7C10.64 7 7.90625 9.73375 7.90625 13.0937C7.90625 14.4234 8.32625 15.6869 9.12188 16.7469L13.6244 22.811C13.6356 22.8257 13.6528 22.8313 13.6653 22.8444C13.8903 23.0853 14.215 23.0247 14.3753 22.811C15.6719 21.081 18.0484 17.85 18.9622 16.6312C18.9622 16.6312 18.9625 16.6303 18.9628 16.6297L18.9684 16.6222C19.7047 15.5878 20.0938 14.3678 20.0938 13.0937C20.0938 9.73375 17.36 7 14 7ZM14 16.3812C12.1909 16.3812 10.7125 14.9028 10.7125 13.0937C10.7125 11.2847 12.1909 9.80625 14 9.80625C15.8091 9.80625 17.2875 11.2847 17.2875 13.0937C17.2875 14.9028 15.8091 16.3812 14 16.3812Z" fill="white"/>
</svg>
