<svg width="15" height="15" viewBox="0 0 15 15" fill="none" xmlns="http://www.w3.org/2000/svg">
<g clip-path="url(#clip0)">
<path d="M14.9607 5.75312C14.862 5.44939 14.5926 5.23435 14.2751 5.20563L9.94506 4.81251L8.2338 0.806099C8.10745 0.511752 7.81997 0.321777 7.49999 0.321777C7.18001 0.321777 6.89241 0.511752 6.76687 0.806099L5.05561 4.81251L0.72486 5.20563C0.407395 5.23492 0.138569 5.44996 0.0392325 5.75312C-0.0595317 6.05685 0.0316792 6.38999 0.27178 6.60057L3.54496 9.47068L2.57986 13.7213C2.50925 14.0339 2.63056 14.357 2.88989 14.5445C3.02928 14.6458 3.19305 14.6964 3.35739 14.6964C3.49861 14.6964 3.63995 14.6588 3.76618 14.5833L7.49999 12.3507L11.2331 14.5833C11.507 14.747 11.8513 14.732 12.1101 14.5445C12.3694 14.357 12.4907 14.0339 12.4201 13.7213L11.455 9.47068L14.7282 6.60057C14.9682 6.38999 15.0595 6.05754 14.9607 5.75312Z" fill="white"/>
</g>
<defs>
<clipPath id="clip0">
<rect width="15" height="15" fill="white"/>
</clipPath>
</defs>
</svg>
